<mxfile host="app.diagrams.net" modified="2023-04-19T14:46:51.711Z" agent="Mozilla/5.0 (Windows NT 10.0; Win64; x64) AppleWebKit/537.36 (KHTML, like Gecko) Chrome/112.0.0.0 Safari/537.36 Edg/112.0.1722.48" etag="hyfPOrH6SSnQhvxSNuOt" version="21.1.9" type="device">
  <diagram name="Page-1" id="iN0qubvmiserkTIKgN8U">
    <mxGraphModel dx="828" dy="478" grid="1" gridSize="10" guides="1" tooltips="1" connect="1" arrows="1" fold="1" page="1" pageScale="1" pageWidth="827" pageHeight="1169" math="0" shadow="0">
      <root>
        <mxCell id="0" />
        <mxCell id="1" parent="0" />
        <mxCell id="dCy2nL5OFbeC903T5zUB-6" style="edgeStyle=orthogonalEdgeStyle;rounded=0;orthogonalLoop=1;jettySize=auto;html=1;exitX=0.622;exitY=0.003;exitDx=0;exitDy=0;entryX=0;entryY=0.5;entryDx=0;entryDy=0;shape=link;strokeWidth=1;endArrow=none;endFill=0;width=11.395348837209305;exitPerimeter=0;fontFamily=Computer Modern;fontSource=https%3A%2F%2Ffonts.googleapis.com%2Fcss%3Ffamily%3DComputer%2BModern;fontSize=15;" edge="1" parent="1" source="dCy2nL5OFbeC903T5zUB-1" target="dCy2nL5OFbeC903T5zUB-4">
          <mxGeometry relative="1" as="geometry" />
        </mxCell>
        <mxCell id="dCy2nL5OFbeC903T5zUB-1" value="Compressor" style="rounded=1;whiteSpace=wrap;html=1;arcSize=50;fontFamily=Computer Modern;fontSource=https%3A%2F%2Ffonts.googleapis.com%2Fcss%3Ffamily%3DComputer%2BModern;fontSize=15;" vertex="1" parent="1">
          <mxGeometry x="240" y="130" width="150" height="110" as="geometry" />
        </mxCell>
        <mxCell id="dCy2nL5OFbeC903T5zUB-11" value="" style="edgeStyle=orthogonalEdgeStyle;rounded=0;orthogonalLoop=1;jettySize=auto;html=1;shape=link;width=10.833333333333332;fontFamily=Computer Modern;fontSource=https%3A%2F%2Ffonts.googleapis.com%2Fcss%3Ffamily%3DComputer%2BModern;fontSize=15;" edge="1" parent="1" source="dCy2nL5OFbeC903T5zUB-4" target="dCy2nL5OFbeC903T5zUB-7">
          <mxGeometry relative="1" as="geometry" />
        </mxCell>
        <mxCell id="dCy2nL5OFbeC903T5zUB-4" value="Regulator" style="rounded=0;whiteSpace=wrap;html=1;fontFamily=Computer Modern;fontSource=https%3A%2F%2Ffonts.googleapis.com%2Fcss%3Ffamily%3DComputer%2BModern;fontSize=15;" vertex="1" parent="1">
          <mxGeometry x="400" y="80" width="80" height="60" as="geometry" />
        </mxCell>
        <mxCell id="dCy2nL5OFbeC903T5zUB-13" value="" style="edgeStyle=orthogonalEdgeStyle;rounded=0;orthogonalLoop=1;jettySize=auto;html=1;shape=link;width=9.2;entryX=1;entryY=0.5;entryDx=0;entryDy=0;fontFamily=Computer Modern;fontSource=https%3A%2F%2Ffonts.googleapis.com%2Fcss%3Ffamily%3DComputer%2BModern;fontSize=15;" edge="1" parent="1" source="dCy2nL5OFbeC903T5zUB-7" target="dCy2nL5OFbeC903T5zUB-12">
          <mxGeometry relative="1" as="geometry">
            <Array as="points">
              <mxPoint x="640" y="110" />
              <mxPoint x="640" y="240" />
            </Array>
          </mxGeometry>
        </mxCell>
        <mxCell id="dCy2nL5OFbeC903T5zUB-7" value="Mass Flow&lt;br style=&quot;font-size: 15px;&quot;&gt;Controller" style="rounded=1;whiteSpace=wrap;html=1;fontFamily=Computer Modern;fontSource=https%3A%2F%2Ffonts.googleapis.com%2Fcss%3Ffamily%3DComputer%2BModern;fontSize=15;" vertex="1" parent="1">
          <mxGeometry x="520" y="80" width="90" height="60" as="geometry" />
        </mxCell>
        <mxCell id="dCy2nL5OFbeC903T5zUB-17" value="" style="edgeStyle=orthogonalEdgeStyle;rounded=0;orthogonalLoop=1;jettySize=auto;html=1;shape=link;width=-9.310344827586206;fontFamily=Computer Modern;fontSource=https%3A%2F%2Ffonts.googleapis.com%2Fcss%3Ffamily%3DComputer%2BModern;fontSize=15;" edge="1" parent="1" source="dCy2nL5OFbeC903T5zUB-12" target="dCy2nL5OFbeC903T5zUB-16">
          <mxGeometry relative="1" as="geometry">
            <Array as="points">
              <mxPoint x="490" y="240" />
              <mxPoint x="490" y="200" />
            </Array>
          </mxGeometry>
        </mxCell>
        <mxCell id="dCy2nL5OFbeC903T5zUB-12" value="Artificial Oral&lt;br style=&quot;font-size: 15px;&quot;&gt;Cavity" style="ellipse;whiteSpace=wrap;html=1;rounded=1;fontFamily=Computer Modern;fontSource=https%3A%2F%2Ffonts.googleapis.com%2Fcss%3Ffamily%3DComputer%2BModern;fontSize=15;" vertex="1" parent="1">
          <mxGeometry x="500" y="200" width="100" height="80" as="geometry" />
        </mxCell>
        <mxCell id="dCy2nL5OFbeC903T5zUB-14" value="" style="ellipse;whiteSpace=wrap;html=1;fontFamily=Computer Modern;fontSource=https%3A%2F%2Ffonts.googleapis.com%2Fcss%3Ffamily%3DComputer%2BModern;fontSize=15;" vertex="1" parent="1">
          <mxGeometry x="535" y="260" width="30" height="10" as="geometry" />
        </mxCell>
        <mxCell id="dCy2nL5OFbeC903T5zUB-15" value="Flute" style="rounded=0;whiteSpace=wrap;html=1;fontFamily=Computer Modern;fontSource=https%3A%2F%2Ffonts.googleapis.com%2Fcss%3Ffamily%3DComputer%2BModern;fontSize=15;" vertex="1" parent="1">
          <mxGeometry x="270" y="280" width="330" height="20" as="geometry" />
        </mxCell>
        <mxCell id="dCy2nL5OFbeC903T5zUB-16" value="Pressure&lt;br style=&quot;font-size: 15px;&quot;&gt;Sensor" style="ellipse;whiteSpace=wrap;html=1;rounded=1;fontFamily=Computer Modern;fontSource=https%3A%2F%2Ffonts.googleapis.com%2Fcss%3Ffamily%3DComputer%2BModern;fontSize=15;" vertex="1" parent="1">
          <mxGeometry x="400" y="160" width="80" height="80" as="geometry" />
        </mxCell>
      </root>
    </mxGraphModel>
  </diagram>
</mxfile>
